<?xml version="1.0" encoding="UTF-8"?>
<svg width="270px" height="80px" viewBox="0 0 270 80" version="1.1" xmlns="http://www.w3.org/2000/svg" xmlns:xlink="http://www.w3.org/1999/xlink">
    <!-- Generator: Sketch 50.2 (55047) - http://www.bohemiancoding.com/sketch -->
    <title>Group</title>
    <desc>Created with Sketch.</desc>
    <defs></defs>
    <g id="Page-1" stroke="none" stroke-width="1" fill="none" fill-rule="evenodd">
        <g id="Group">
            <rect id="Rectangle-3" stroke="#333EB7" stroke-width="4" x="2" y="2" width="266" height="76" rx="15"></rect>
            <path d="M34.304,55.96 C32.9279931,55.96 31.5760066,55.8400012 30.248,55.6 C28.9199934,55.3599988 27.6400062,55.0080023 26.408,54.544 C25.1759938,54.0799977 24.0160054,53.5360031 22.928,52.912 C21.8399946,52.2879969 20.8640043,51.5920038 20,50.824 L26.96,43.24 C27.760004,44.1040043 28.8239934,44.8719966 30.152,45.544 C31.4800066,46.2160034 32.847993,46.552 34.256,46.552 C34.8960032,46.552 35.4799974,46.4400011 36.008,46.216 C36.5360026,45.9919989 36.8,45.576003 36.8,44.968 C36.8,44.6479984 36.7120009,44.3760011 36.536,44.152 C36.3599991,43.9279989 36.0480022,43.6960012 35.6,43.456 C35.1519978,43.2159988 34.5360039,42.9520014 33.752,42.664 C32.9679961,42.3759986 31.9840059,42.0400019 30.8,41.656 C29.6479942,41.2719981 28.5440053,40.8160026 27.488,40.288 C26.4319947,39.7599974 25.4960041,39.1120038 24.68,38.344 C23.8639959,37.5759962 23.2160024,36.6560054 22.736,35.584 C22.2559976,34.5119946 22.016,33.2240075 22.016,31.72 C22.016,29.6079894 22.4479957,27.8160074 23.312,26.344 C24.1760043,24.8719926 25.2879932,23.6640047 26.648,22.72 C28.0080068,21.7759953 29.5359915,21.0960021 31.232,20.68 C32.9280085,20.2639979 34.6079917,20.056 36.272,20.056 C38.5120112,20.056 40.7919884,20.4879957 43.112,21.352 C45.4320116,22.2160043 47.4719912,23.4639918 49.232,25.096 L42.128,32.344 C41.3599962,31.3839952 40.4160056,30.6560025 39.296,30.16 C38.1759944,29.6639975 37.1680045,29.416 36.272,29.416 C35.4399958,29.416 34.7680026,29.5359988 34.256,29.776 C33.7439974,30.0160012 33.488,30.4079973 33.488,30.952 C33.488,31.4640026 33.7519974,31.8479987 34.28,32.104 C34.8080026,32.3600013 35.6639941,32.6799981 36.848,33.064 C38.0640061,33.4480019 39.3439933,33.8959974 40.688,34.408 C42.0320067,34.9200026 43.2719943,35.5839959 44.408,36.4 C45.5440057,37.2160041 46.4799963,38.2159941 47.216,39.4 C47.9520037,40.5840059 48.32,42.0559912 48.32,43.816 C48.32,45.8640102 47.9120041,47.6479924 47.096,49.168 C46.2799959,50.6880076 45.2080066,51.951995 43.88,52.96 C42.5519934,53.968005 41.0560083,54.7199975 39.392,55.216 C37.7279917,55.7120025 36.0320086,55.96 34.304,55.96 Z M69.92,55.672 C68.6719938,55.672 67.4400061,55.4400023 66.224,54.976 C65.0079939,54.5119977 64.0160038,53.8640042 63.248,53.032 L63.152,53.032 L63.152,66.52 L52.16,66.52 L52.16,29.752 L62.576,29.752 L62.576,32.296 L62.672,32.296 C63.6000046,31.2399947 64.7199934,30.4400027 66.032,29.896 C67.3440066,29.3519973 68.6239938,29.08 69.872,29.08 C71.7600094,29.08 73.4239928,29.4639962 74.864,30.232 C76.3040072,31.0000038 77.5039952,32.0079938 78.464,33.256 C79.4240048,34.5040062 80.1519975,35.9119922 80.648,37.48 C81.1440025,39.0480078 81.392,40.6479918 81.392,42.28 C81.392,43.9440083 81.1440025,45.575992 80.648,47.176 C80.1519975,48.776008 79.4240048,50.2079937 78.464,51.472 C77.5039952,52.7360063 76.3120071,53.7519962 74.888,54.52 C73.4639929,55.2880038 71.8080094,55.672 69.92,55.672 Z M71.12,42.28 C71.12,41.1599944 70.7680035,40.1840042 70.064,39.352 C69.3599965,38.5199958 68.3360067,38.104 66.992,38.104 C65.6799934,38.104 64.6320039,38.5199958 63.848,39.352 C63.0639961,40.1840042 62.672,41.1599944 62.672,42.28 C62.672,43.4640059 63.0639961,44.4719958 63.848,45.304 C64.6320039,46.1360042 65.6799934,46.552 66.992,46.552 C68.3360067,46.552 69.3599965,46.1440041 70.064,45.328 C70.7680035,44.5119959 71.12,43.4960061 71.12,42.28 Z M98.96,44.536 C97.3279918,44.536 96.016005,44.7119982 95.024,45.064 C94.031995,45.4160018 93.536,46.0719952 93.536,47.032 C93.536,47.3840018 93.6159992,47.6799988 93.776,47.92 C93.9360008,48.1600012 94.1439987,48.3599992 94.4,48.52 C94.6560013,48.6800008 94.9359985,48.7999996 95.24,48.88 C95.5440015,48.9600004 95.8239987,49 96.08,49 C97.1360053,49 97.9839968,48.6640034 98.624,47.992 C99.2640032,47.3199966 99.584,46.4560053 99.584,45.4 L99.584,44.536 L98.96,44.536 Z M98.864,38.968 C98.864,38.1999962 98.6000026,37.6320018 98.072,37.264 C97.5439974,36.8959982 96.8480043,36.712 95.984,36.712 C94.9599949,36.712 93.9920046,36.9279978 93.08,37.36 C92.1679954,37.7920022 91.3600035,38.2959971 90.656,38.872 L85.136,33.4 C86.6720077,31.9279926 88.4959894,30.792004 90.608,29.992 C92.7200106,29.191996 94.8959888,28.792 97.136,28.792 C99.536012,28.792 101.519992,29.1279966 103.088,29.8 C104.656008,30.4720034 105.895995,31.3999941 106.808,32.584 C107.720005,33.7680059 108.359998,35.1439922 108.728,36.712 C109.096002,38.2800078 109.28,39.9439912 109.28,41.704 L109.28,55 L99.248,55 L99.248,52.984 L99.152,52.984 C98.5119968,53.9440048 97.6000059,54.6319979 96.416,55.048 C95.2319941,55.4640021 94.0800056,55.672 92.96,55.672 C91.967995,55.672 90.9520052,55.5280014 89.912,55.24 C88.8719948,54.9519986 87.9280042,54.4880032 87.08,53.848 C86.2319958,53.2079968 85.5360027,52.3760051 84.992,51.352 C84.4479973,50.3279949 84.176,49.0640075 84.176,47.56 C84.176,45.7999912 84.6319954,44.3680055 85.544,43.264 C86.4560046,42.1599945 87.615993,41.2960031 89.024,40.672 C90.432007,40.0479969 92.0079913,39.6240011 93.752,39.4 C95.4960087,39.1759989 97.1999917,39.064 98.864,39.064 L98.864,38.968 Z M127.568,55.96 C125.423989,55.96 123.456009,55.6400032 121.664,55 C119.871991,54.3599968 118.320007,53.4480059 117.008,52.264 C115.695993,51.0799941 114.672004,49.6560083 113.936,47.992 C113.199996,46.3279917 112.832,44.4560104 112.832,42.376 C112.832,40.3279898 113.207996,38.4640084 113.96,36.784 C114.712004,35.1039916 115.759993,33.6720059 117.104,32.488 C118.448007,31.3039941 120.023991,30.3920032 121.832,29.752 C123.640009,29.1119968 125.599989,28.792 127.712,28.792 C128.576004,28.792 129.447996,28.8639993 130.328,29.008 C131.208004,29.1520007 132.055996,29.3519987 132.872,29.608 C133.688004,29.8640013 134.439997,30.1519984 135.128,30.472 C135.816003,30.7920016 136.399998,31.1439981 136.88,31.528 L131.36,39.496 C130.975998,39.0479978 130.472003,38.7040012 129.848,38.464 C129.223997,38.2239988 128.624003,38.104 128.048,38.104 C127.503997,38.104 126.976003,38.1919991 126.464,38.368 C125.951997,38.5440009 125.496002,38.8159982 125.096,39.184 C124.695998,39.5520018 124.368001,39.9999974 124.112,40.528 C123.855999,41.0560026 123.728,41.6719965 123.728,42.376 C123.728,43.0800035 123.855999,43.6959974 124.112,44.224 C124.368001,44.7520026 124.695998,45.1839983 125.096,45.52 C125.496002,45.8560017 125.951997,46.1119991 126.464,46.288 C126.976003,46.4640009 127.503997,46.552 128.048,46.552 C128.688003,46.552 129.311997,46.4320012 129.92,46.192 C130.528003,45.9519988 131.023998,45.6240021 131.408,45.208 L136.976,52.984 C135.919995,53.8160042 134.552008,54.5199971 132.872,55.096 C131.191992,55.6720029 129.424009,55.96 127.568,55.96 Z M155.888,39.016 C155.888,38.1199955 155.560003,37.3840029 154.904,36.808 C154.247997,36.2319971 153.360006,35.944 152.24,35.944 C151.023994,35.944 150.080003,36.2799966 149.408,36.952 C148.735997,37.6240034 148.352,38.3119965 148.256,39.016 L155.888,39.016 Z M165.44,42.616 C165.44,43.0320021 165.432,43.4559978 165.416,43.888 C165.4,44.3200022 165.376,44.6799986 165.344,44.968 L148.352,44.968 C148.384,45.4160022 148.535999,45.8159982 148.808,46.168 C149.080001,46.5200018 149.415998,46.8239987 149.816,47.08 C150.216002,47.3360013 150.663998,47.5279994 151.16,47.656 C151.656002,47.7840006 152.159997,47.848 152.672,47.848 C153.696005,47.848 154.551997,47.6640018 155.24,47.296 C155.928003,46.9279982 156.447998,46.5200022 156.8,46.072 L164.672,50.056 C163.551994,51.8800091 161.928011,53.3199947 159.8,54.376 C157.671989,55.4320053 155.200014,55.96 152.384,55.96 C150.559991,55.96 148.784009,55.6720029 147.056,55.096 C145.327991,54.5199971 143.800007,53.6640057 142.472,52.528 C141.143993,51.3919943 140.080004,49.9760085 139.28,48.28 C138.479996,46.5839915 138.08,44.6160112 138.08,42.376 C138.08,40.2959896 138.447996,38.4160084 139.184,36.736 C139.920004,35.0559916 140.919994,33.6320058 142.184,32.464 C143.448006,31.2959942 144.935991,30.3920032 146.648,29.752 C148.360009,29.1119968 150.19199,28.792 152.144,28.792 C154.12801,28.792 155.935992,29.1359966 157.568,29.824 C159.200008,30.5120034 160.599994,31.4719938 161.768,32.704 C162.936006,33.9360062 163.839997,35.3999915 164.48,37.096 C165.120003,38.7920085 165.44,40.6319901 165.44,42.616 Z M198.56,42.28 C198.56,43.9440083 198.312002,45.575992 197.816,47.176 C197.319998,48.776008 196.592005,50.2079937 195.632,51.472 C194.671995,52.7360063 193.472007,53.7519962 192.032,54.52 C190.591993,55.2880038 188.928009,55.672 187.04,55.672 C185.471992,55.672 183.984007,55.376003 182.576,54.784 C181.167993,54.191997 180.096004,53.3840051 179.36,52.36 L179.264,52.36 L179.264,55 L169.328,55 L169.328,18.712 L180.368,18.712 L180.368,31.768 L180.464,31.768 C181.200004,30.9039957 182.175994,30.2400023 183.392,29.776 C184.608006,29.3119977 185.823994,29.08 187.04,29.08 C188.928009,29.08 190.591993,29.4639962 192.032,30.232 C193.472007,31.0000038 194.671995,32.0079938 195.632,33.256 C196.592005,34.5040062 197.319998,35.9119922 197.816,37.48 C198.312002,39.0480078 198.56,40.6479918 198.56,42.28 Z M188.288,42.28 C188.288,41.1599944 187.936004,40.1840042 187.232,39.352 C186.527996,38.5199958 185.504007,38.104 184.16,38.104 C182.847993,38.104 181.800004,38.5199958 181.016,39.352 C180.231996,40.1840042 179.84,41.1599944 179.84,42.28 C179.84,43.4640059 180.231996,44.4719958 181.016,45.304 C181.800004,46.1360042 182.847993,46.552 184.16,46.552 C185.504007,46.552 186.527996,46.1440041 187.232,45.328 C187.936004,44.5119959 188.288,43.4960061 188.288,42.28 Z M216.128,44.536 C214.495992,44.536 213.184005,44.7119982 212.192,45.064 C211.199995,45.4160018 210.704,46.0719952 210.704,47.032 C210.704,47.3840018 210.783999,47.6799988 210.944,47.92 C211.104001,48.1600012 211.311999,48.3599992 211.568,48.52 C211.824001,48.6800008 212.103998,48.7999996 212.408,48.88 C212.712002,48.9600004 212.991999,49 213.248,49 C214.304005,49 215.151997,48.6640034 215.792,47.992 C216.432003,47.3199966 216.752,46.4560053 216.752,45.4 L216.752,44.536 L216.128,44.536 Z M216.032,38.968 C216.032,38.1999962 215.768003,37.6320018 215.24,37.264 C214.711997,36.8959982 214.016004,36.712 213.152,36.712 C212.127995,36.712 211.160005,36.9279978 210.248,37.36 C209.335995,37.7920022 208.528004,38.2959971 207.824,38.872 L202.304,33.4 C203.840008,31.9279926 205.663989,30.792004 207.776,29.992 C209.888011,29.191996 212.063989,28.792 214.304,28.792 C216.704012,28.792 218.687992,29.1279966 220.256,29.8 C221.824008,30.4720034 223.063995,31.3999941 223.976,32.584 C224.888005,33.7680059 225.527998,35.1439922 225.896,36.712 C226.264002,38.2800078 226.448,39.9439912 226.448,41.704 L226.448,55 L216.416,55 L216.416,52.984 L216.32,52.984 C215.679997,53.9440048 214.768006,54.6319979 213.584,55.048 C212.399994,55.4640021 211.248006,55.672 210.128,55.672 C209.135995,55.672 208.120005,55.5280014 207.08,55.24 C206.039995,54.9519986 205.096004,54.4880032 204.248,53.848 C203.399996,53.2079968 202.704003,52.3760051 202.16,51.352 C201.615997,50.3279949 201.344,49.0640075 201.344,47.56 C201.344,45.7999912 201.799995,44.3680055 202.712,43.264 C203.624005,42.1599945 204.783993,41.2960031 206.192,40.672 C207.600007,40.0479969 209.175991,39.6240011 210.92,39.4 C212.664009,39.1759989 214.367992,39.064 216.032,39.064 L216.032,38.968 Z M231.008,29.752 L241.664,29.752 L241.664,32.632 L241.76,32.632 C242.304003,31.6079949 243.111995,30.7600034 244.184,30.088 C245.256005,29.4159966 246.511993,29.08 247.952,29.08 C248.816004,29.08 249.519997,29.1599992 250.064,29.32 L249.2,38.728 C248.847998,38.6319995 248.456002,38.5600002 248.024,38.512 C247.591998,38.4639998 247.200002,38.44 246.848,38.44 C245.407993,38.44 244.256004,38.8559958 243.392,39.688 C242.527996,40.5200042 242.096,41.5439939 242.096,42.76 L242.096,55 L231.008,55 L231.008,29.752 Z" id="Spacebar" fill="#333EB7"></path>
        </g>
    </g>
</svg>